<svg version="1.1" id="Layer_1" xmlns="http://www.w3.org/2000/svg" xmlns:xlink="http://www.w3.org/1999/xlink" x="0px" y="0px"
	 width="100%" viewBox="0 0 1200 1200" enable-background="new 0 0 1200 1200" xml:space="preserve">
<path fill="#47704C" opacity="1.000000" stroke="none" 
	d="
M665.000000,1201.000000 
	C443.333344,1201.000000 222.166672,1201.000000 1.000000,1201.000000 
	C1.000000,801.000000 1.000000,401.000000 1.000000,1.000000 
	C401.000000,1.000000 801.000000,1.000000 1201.000000,1.000000 
	C1201.000000,401.000000 1201.000000,801.000000 1201.000000,1201.000000 
	C1022.500000,1201.000000 844.000000,1201.000000 665.000000,1201.000000 
M791.809021,711.814392 
	C806.029846,697.552490 820.268677,683.308289 834.435425,668.992859 
	C835.497620,667.919434 836.045166,666.336731 837.105957,664.439941 
	C837.328796,664.197998 837.745178,663.957397 837.746826,663.713989 
	C837.834900,650.623047 837.979675,637.531311 837.891296,624.441162 
	C837.863220,620.294678 837.203491,616.152405 837.144836,611.390869 
	C837.427795,606.990295 837.867432,602.591980 837.930298,598.188232 
	C837.963928,595.831909 837.348145,593.466431 837.523071,590.938660 
	C837.641235,590.637329 837.759399,590.335999 838.033020,589.104248 
	C837.990173,580.401978 837.947327,571.699646 838.017029,562.324219 
	C837.966187,561.874512 837.915344,561.424866 837.887146,560.447449 
	C837.600037,560.261780 837.312988,560.076111 837.002197,559.088562 
	C837.349243,546.243347 837.730469,533.398804 837.998169,520.551941 
	C838.030029,519.023926 837.442261,517.483032 837.254333,515.289917 
	C837.181152,511.231262 837.107971,507.172607 837.528320,502.936249 
	C837.635864,502.633789 837.743347,502.331329 837.997070,501.100739 
	C838.005798,492.198792 838.059631,483.296478 837.979797,474.395325 
	C837.966187,472.878174 837.380127,471.366180 837.014038,469.716187 
	C837.014038,469.716187 836.935974,469.596741 837.076233,469.676056 
	C837.076233,469.676056 837.315735,469.498810 837.896362,468.642487 
	C837.871948,449.434448 837.847534,430.226440 837.937500,410.506409 
	C837.899536,410.335754 837.861511,410.165070 837.971069,409.499969 
	C837.910278,409.164642 837.849548,408.829285 837.959534,408.059631 
	C837.967957,368.897217 837.986389,329.734802 837.947632,290.572418 
	C837.946106,289.033478 837.399048,287.495056 836.835938,285.338165 
	C827.240784,275.853455 817.645691,266.368774 807.795410,256.271027 
	C802.517029,250.986908 797.319519,245.617477 791.901428,240.480728 
	C790.604065,239.250702 788.582336,238.117889 786.877014,238.093155 
	C775.589294,237.929520 764.297119,238.080200 752.119202,237.988281 
	C729.407166,238.034851 706.695068,238.081421 683.503174,238.030609 
	C683.503174,238.030609 683.031982,238.163757 682.150146,238.021042 
	C679.774780,238.059601 677.399475,238.098145 674.092529,237.997208 
	C654.403442,238.036819 634.714355,238.076431 614.092651,237.985336 
	C583.976685,238.033646 553.860657,238.081955 523.289307,237.997726 
	C485.524689,238.025345 447.760101,238.052963 409.448853,238.046616 
	C409.245697,238.337082 409.042572,238.627548 408.247467,239.212646 
	C394.722351,252.739868 381.375641,266.453278 367.567719,279.685394 
	C363.199249,283.871704 361.013458,288.089539 362.043854,294.649292 
	C362.090851,295.102905 362.137848,295.556488 362.052582,296.937836 
	C362.095886,326.244324 362.139191,355.550842 362.032288,385.674713 
	C362.073212,416.780457 362.114136,447.886230 362.012787,479.920746 
	C362.050934,511.611420 362.089081,543.302124 361.990967,575.922363 
	C362.029419,605.620789 362.067871,635.319214 362.075562,665.553162 
	C362.370178,665.733032 362.664764,665.912903 363.246613,666.691345 
	C377.494934,680.940613 391.807587,695.126648 405.931976,709.497742 
	C408.462524,712.072449 410.952393,713.082886 414.568115,713.080078 
	C537.876526,712.984009 661.184998,713.000977 784.493469,712.991821 
	C786.321960,712.991638 788.150513,712.866333 790.516052,712.880005 
	C790.742859,712.604980 790.969604,712.329895 791.809021,711.814392 
M706.904846,841.500000 
	C706.904846,824.419556 706.904846,807.339050 706.904846,790.096069 
	C697.600464,790.096069 688.947449,789.960510 680.307007,790.230652 
	C678.882935,790.275208 676.731812,791.811584 676.242126,793.145142 
	C671.666199,805.608276 667.376709,818.176514 663.010254,830.716492 
	C659.480042,840.854614 655.958130,850.995728 652.012268,862.344421 
	C645.029480,842.223206 638.510132,823.437378 631.990784,804.651550 
	C630.614197,800.684814 629.450195,796.622742 627.738525,792.806213 
	C627.184753,791.571533 625.216125,790.256592 623.857117,790.215393 
	C615.869202,789.972656 607.869446,790.157593 599.875427,790.058594 
	C597.406860,790.028015 596.522583,790.693970 596.725586,793.366699 
	C597.068176,797.876038 597.006287,802.422974 596.969360,806.952942 
	C596.846741,821.987427 596.602295,837.021118 596.513855,852.055786 
	C596.433838,865.663330 596.496948,879.271729 596.496948,892.693115 
	C604.488892,892.693115 612.082886,892.693115 620.387634,892.693115 
	C619.826599,868.779663 619.273193,845.191040 618.733154,822.169434 
	C620.588257,827.139771 622.745789,832.696106 624.741821,838.309875 
	C630.872192,855.551575 636.892395,872.832825 643.133484,890.034058 
	C643.588379,891.287598 645.514465,892.902405 646.682922,892.845276 
	C651.430542,892.613159 656.150024,891.798096 660.873474,891.150940 
	C660.942810,891.141541 660.856628,890.501038 660.964600,890.198486 
	C666.296021,875.255859 671.644409,860.319458 676.982544,845.379211 
	C679.722412,837.710938 682.446350,830.037048 685.279419,822.079529 
	C684.736816,845.979187 684.205505,869.380981 683.676331,892.689697 
	C692.043396,892.689697 699.297913,892.689697 706.904846,892.689697 
	C706.904846,875.753174 706.904846,859.126587 706.904846,841.500000 
M544.539673,889.033020 
	C554.282410,883.577332 558.784912,874.917664 558.888367,864.100647 
	C559.111267,840.797119 558.990662,817.490356 558.987671,794.184875 
	C558.987549,792.916870 558.778809,791.648926 558.641968,790.095215 
	C553.365723,790.095215 548.396301,790.094788 543.426880,790.095276 
	C536.016357,790.096008 536.011719,790.096313 536.015991,797.255859 
	C536.029480,819.562378 536.048218,841.868896 536.061584,864.175415 
	C536.065552,870.806213 531.858032,875.549744 525.558167,876.032898 
	C517.731689,876.632996 514.315979,874.005798 512.921509,866.498779 
	C512.638306,864.974121 511.891144,863.535706 511.355255,862.050110 
	C505.738586,862.050110 500.419220,862.052368 495.099854,862.049500 
	C488.708252,862.046143 489.169128,861.990112 489.905762,868.258362 
	C491.559601,882.331665 499.891327,889.984253 512.914307,893.406372 
	C523.745728,896.252563 534.192200,895.433411 544.539673,889.033020 
z"/>
<path fill="#D5D7D8" opacity="1.000000" stroke="none" 
	d="
M362.106323,665.017639 
	C362.067871,635.319214 362.029419,605.620789 362.429871,575.469116 
	C366.687714,575.924622 373.078491,583.065125 371.970642,585.387146 
	C370.830658,585.591614 369.605774,585.811340 367.419647,586.203430 
	C370.058441,591.004883 372.404999,595.279602 374.766571,599.545959 
	C374.831268,599.662903 375.121155,599.648804 375.198029,599.766418 
	C375.985352,600.971191 377.094574,602.096436 377.457367,603.423401 
	C378.575897,607.514526 383.898865,612.604980 388.254028,613.299988 
	C391.275787,613.782104 394.649475,613.459473 397.266785,614.730347 
	C400.732300,616.413086 403.612976,619.300415 406.808594,621.718201 
	C410.277740,617.871338 411.964172,554.500305 409.015930,522.603027 
	C409.345734,496.951782 409.845428,471.720978 409.862579,446.489807 
	C409.866058,441.354919 408.053131,436.218811 407.409485,430.906830 
	C408.489105,425.899017 409.848022,421.071991 409.882751,416.235474 
	C410.072418,389.814148 409.936584,363.390503 409.922852,336.592651 
	C409.953583,326.114777 409.986298,316.011871 409.992096,305.908966 
	C410.004913,283.599518 410.004211,261.290070 410.008423,238.755554 
	C410.007843,238.530518 409.995483,238.080597 409.995483,238.080597 
	C447.760101,238.052963 485.524689,238.025345 523.732300,238.373886 
	C530.234436,239.168808 536.289124,239.808304 542.354309,239.932449 
	C546.747009,240.022354 549.268616,241.895554 550.049011,246.097076 
	C550.502197,248.536591 550.935913,251.023132 550.956543,253.492020 
	C551.046326,264.289215 550.981934,275.087646 550.507080,285.907776 
	C521.209106,285.952759 492.377533,286.001007 463.546082,285.964386 
	C460.170441,285.960083 457.760925,286.230713 457.827606,290.659576 
	C458.045746,305.154358 457.986450,319.653320 458.037231,334.609741 
	C458.040985,427.188782 458.040375,519.308777 458.047272,611.428772 
	C458.047424,613.592163 458.131561,615.755493 457.898560,617.934387 
	C457.435394,617.960571 457.250122,617.971313 456.589233,617.988159 
	C441.437500,617.994385 426.761322,617.994385 412.085175,617.994385 
	C412.088043,618.337830 412.090912,618.681213 412.093781,619.024658 
	C414.724701,619.024658 417.355652,619.024658 419.655212,619.228760 
	C416.991394,620.257568 414.658905,621.082275 412.326416,621.906982 
	C413.769592,624.508728 415.242523,627.094666 416.640564,629.720459 
	C417.166382,630.708130 417.972290,631.831726 417.877716,632.819397 
	C417.125366,640.677124 420.771851,646.808899 425.194244,652.752502 
	C426.026581,653.871033 426.115723,655.542664 426.656891,657.316650 
	C424.248932,656.724121 422.962128,656.407471 421.675354,656.090820 
	C421.335815,657.589600 420.821625,659.075195 420.706543,660.591003 
	C420.595215,662.057312 420.894897,663.554871 420.544586,665.051331 
	C405.070618,665.090576 390.066101,665.117188 374.635559,665.104736 
	C372.786377,665.091553 371.363159,665.117432 369.506836,665.132812 
	C367.050446,665.083313 365.027100,665.044312 362.779297,664.998962 
	C362.554810,664.992554 362.106323,665.017639 362.106323,665.017639 
z"/>
<path fill="#FEFEFE" opacity="1.000000" stroke="none" 
	d="
M458.033813,334.150696 
	C457.986450,319.653320 458.045746,305.154358 457.827606,290.659576 
	C457.760925,286.230713 460.170441,285.960083 463.546082,285.964386 
	C492.377533,286.001007 521.209106,285.952759 550.977234,285.945282 
	C573.934509,285.944458 595.955078,285.928284 618.446289,285.940002 
	C638.936829,285.956573 658.956726,285.945190 679.446472,285.950806 
	C699.941711,285.966949 719.967041,285.966156 740.461426,285.974426 
	C762.617493,285.984131 784.304443,285.984741 806.460938,285.990387 
	C816.989014,285.982391 827.047546,285.969391 837.106140,285.956390 
	C837.399048,287.495056 837.946106,289.033478 837.947632,290.572418 
	C837.986389,329.734802 837.967957,368.897217 837.779419,408.524017 
	C837.674072,409.323730 837.748718,409.659027 837.823425,409.994354 
	C837.861511,410.165070 837.899536,410.335754 837.534119,410.919189 
	C835.839050,411.553619 834.550232,411.949188 833.255310,411.970093 
	C819.964172,412.184509 806.672180,412.351440 793.380005,412.485229 
	C792.247986,412.496643 791.112610,412.174561 789.965881,411.538574 
	C789.855408,405.349487 789.757812,399.629150 789.724365,393.452454 
	C789.857971,374.701141 789.846375,356.405273 790.060059,338.112000 
	C790.106995,334.089569 788.505859,332.956024 784.724121,333.002075 
	C772.065063,333.156219 759.402649,333.024261 746.742249,333.106232 
	C745.150879,333.116516 743.563538,333.749817 741.509644,334.044800 
	C647.868591,333.989563 554.692322,333.983429 461.515991,333.985657 
	C460.355286,333.985687 459.194550,334.093292 458.033813,334.150696 
z"/>
<path fill="#F7F8F8" opacity="1.000000" stroke="none" 
	d="
M375.061554,665.143799 
	C390.066101,665.117188 405.070618,665.090576 421.011597,665.062622 
	C446.633636,665.075012 471.319244,665.088684 496.268372,665.245850 
	C523.013794,665.578003 549.495789,665.766479 576.448486,665.968750 
	C598.990112,665.988586 621.061340,666.053162 643.131287,665.913696 
	C645.431763,665.899231 647.724548,664.675354 650.364502,664.139648 
	C655.471252,664.845032 660.234436,665.423462 665.331665,666.002075 
	C666.111389,666.002136 666.556885,666.002136 667.376831,666.003906 
	C668.500000,666.004272 669.248779,666.002869 670.466492,666.001709 
	C692.531738,666.002075 714.128174,666.029602 735.724304,665.958496 
	C737.816711,665.951599 739.907227,665.333862 742.215820,664.654236 
	C742.626831,660.543457 742.820740,656.778198 743.482422,653.010132 
	C758.991638,653.002380 774.033203,652.997314 789.073975,653.405945 
	C789.976013,657.830688 790.878784,661.841736 791.447998,666.050903 
	C790.718933,667.787598 789.988159,669.324463 789.980164,670.865112 
	C789.908875,684.583984 789.965210,698.303467 789.982910,712.216919 
	C789.981812,712.411072 789.979004,712.799377 789.979004,712.799377 
	C788.150513,712.866333 786.321960,712.991638 784.493469,712.991821 
	C661.184998,713.000977 537.876526,712.984009 414.568115,713.080078 
	C410.952393,713.082886 408.462524,712.072449 405.931976,709.497742 
	C391.807587,695.126648 377.494934,680.940613 363.119781,666.120239 
	C362.996582,665.367859 363.000183,665.186584 363.003784,665.005371 
	C365.027100,665.044312 367.050446,665.083313 369.663025,665.422363 
	C371.855408,665.529602 373.458466,665.336731 375.061554,665.143799 
z"/>
<path fill="#FEFEFE" opacity="1.000000" stroke="none" 
	d="
M706.904846,842.000000 
	C706.904846,859.126587 706.904846,875.753174 706.904846,892.689697 
	C699.297913,892.689697 692.043396,892.689697 683.676331,892.689697 
	C684.205505,869.380981 684.736816,845.979187 685.279419,822.079529 
	C682.446350,830.037048 679.722412,837.710938 676.982544,845.379211 
	C671.644409,860.319458 666.296021,875.255859 660.964600,890.198486 
	C660.856628,890.501038 660.942810,891.141541 660.873474,891.150940 
	C656.150024,891.798096 651.430542,892.613159 646.682922,892.845276 
	C645.514465,892.902405 643.588379,891.287598 643.133484,890.034058 
	C636.892395,872.832825 630.872192,855.551575 624.741821,838.309875 
	C622.745789,832.696106 620.588257,827.139771 618.733154,822.169434 
	C619.273193,845.191040 619.826599,868.779663 620.387634,892.693115 
	C612.082886,892.693115 604.488892,892.693115 596.496948,892.693115 
	C596.496948,879.271729 596.433838,865.663330 596.513855,852.055786 
	C596.602295,837.021118 596.846741,821.987427 596.969360,806.952942 
	C597.006287,802.422974 597.068176,797.876038 596.725586,793.366699 
	C596.522583,790.693970 597.406860,790.028015 599.875427,790.058594 
	C607.869446,790.157593 615.869202,789.972656 623.857117,790.215393 
	C625.216125,790.256592 627.184753,791.571533 627.738525,792.806213 
	C629.450195,796.622742 630.614197,800.684814 631.990784,804.651550 
	C638.510132,823.437378 645.029480,842.223206 652.012268,862.344421 
	C655.958130,850.995728 659.480042,840.854614 663.010254,830.716492 
	C667.376709,818.176514 671.666199,805.608276 676.242126,793.145142 
	C676.731812,791.811584 678.882935,790.275208 680.307007,790.230652 
	C688.947449,789.960510 697.600464,790.096069 706.904846,790.096069 
	C706.904846,807.339050 706.904846,824.419556 706.904846,842.000000 
z"/>
<path fill="#E9EAEB" opacity="1.000000" stroke="none" 
	d="
M837.864502,560.975159 
	C837.915344,561.424866 837.966187,561.874512 837.641968,562.783630 
	C827.965088,567.716858 818.031067,564.329529 808.438538,565.479797 
	C802.617371,566.177856 796.644165,565.608459 789.990723,565.608459 
	C789.990723,569.697754 789.965393,574.309937 790.000244,578.921692 
	C790.021240,581.702454 789.460938,583.958130 785.869995,583.829346 
	C785.481323,583.401917 785.230774,583.189514 784.728638,583.005737 
	C784.500122,583.007141 784.043091,583.004395 783.612793,583.004272 
	C776.431274,583.006409 769.679993,583.001892 762.928711,583.015869 
	C761.265198,583.019287 759.601624,583.117981 757.938293,583.111938 
	C752.686646,583.092957 747.435120,583.045105 742.107910,582.544678 
	C742.075378,561.081177 742.118408,540.081482 742.629150,519.011841 
	C745.557312,518.628540 748.015381,518.066772 750.478516,518.044067 
	C762.204590,517.935974 773.932312,518.007568 785.658691,517.919006 
	C787.104736,517.908081 788.546509,517.321716 790.399658,516.916260 
	C800.872559,516.721924 810.936768,516.655518 820.999207,516.487793 
	C826.381592,516.398010 831.760925,516.133667 837.141663,515.948120 
	C837.442261,517.483032 838.030029,519.023926 837.998169,520.551941 
	C837.730469,533.398804 837.349243,546.243347 837.143127,559.678955 
	C837.441956,560.533936 837.635437,560.769165 837.864502,560.975159 
z"/>
<path fill="#DCDEDE" opacity="1.000000" stroke="none" 
	d="
M409.015411,523.023315 
	C411.964172,554.500305 410.277740,617.871338 406.808594,621.718201 
	C403.612976,619.300415 400.732300,616.413086 397.266785,614.730347 
	C394.649475,613.459473 391.275787,613.782104 388.254028,613.299988 
	C383.898865,612.604980 378.575897,607.514526 377.457367,603.423401 
	C377.094574,602.096436 375.985352,600.971191 375.198029,599.766418 
	C375.121155,599.648804 374.831268,599.662903 374.766571,599.545959 
	C372.404999,595.279602 370.058441,591.004883 367.419647,586.203430 
	C369.605774,585.811340 370.830658,585.591614 371.970642,585.387146 
	C373.078491,583.065125 366.687714,575.924622 362.497986,575.004272 
	C362.089081,543.302124 362.050934,511.611420 362.501770,479.459076 
	C374.151245,479.798187 383.291321,483.472229 387.046417,495.320038 
	C387.521973,496.820557 389.282959,497.919098 390.464264,499.189178 
	C392.227112,501.084473 395.085388,502.719940 395.582336,504.898315 
	C397.443329,513.055786 402.339844,518.615479 409.015411,523.023315 
z"/>
<path fill="#E9EAEB" opacity="1.000000" stroke="none" 
	d="
M409.912659,336.967651 
	C409.936584,363.390503 410.072418,389.814148 409.882751,416.235474 
	C409.848022,421.071991 408.489105,425.899017 407.107666,430.701752 
	C405.536530,428.982635 404.618042,427.281403 403.655945,425.605133 
	C402.857513,424.214050 402.070801,421.712555 401.170593,421.662842 
	C395.341644,421.340729 391.033569,418.469849 386.243744,415.396210 
	C380.416504,411.656921 376.765137,406.372040 374.316132,400.822357 
	C371.433807,394.290741 367.581665,389.153992 362.182495,384.857330 
	C362.139191,355.550842 362.095886,326.244324 362.422241,296.473022 
	C363.196625,296.005432 363.601349,296.002716 364.365997,296.039154 
	C370.750519,298.068207 367.633179,303.590637 369.292847,306.874817 
	C372.499756,308.064941 375.259827,309.751373 377.991364,311.482880 
	C379.098755,312.184845 380.168579,313.668579 381.213226,313.630707 
	C388.503296,313.366394 392.122894,318.593445 396.138000,323.231842 
	C397.914032,325.283569 399.494568,327.504547 401.460785,330.030121 
	C402.263153,329.946167 403.782410,329.787262 405.301666,329.628326 
	C405.010742,330.042633 404.719788,330.456909 404.428864,330.871185 
	C406.256805,332.903351 408.084717,334.935486 409.912659,336.967651 
z"/>
<path fill="#E3E4E5" opacity="1.000000" stroke="none" 
	d="
M362.107361,385.266022 
	C367.581665,389.153992 371.433807,394.290741 374.316132,400.822357 
	C376.765137,406.372040 380.416504,411.656921 386.243744,415.396210 
	C391.033569,418.469849 395.341644,421.340729 401.170593,421.662842 
	C402.070801,421.712555 402.857513,424.214050 403.655945,425.605133 
	C404.618042,427.281403 405.536530,428.982635 406.775696,430.878174 
	C408.053131,436.218811 409.866058,441.354919 409.862579,446.489807 
	C409.845428,471.720978 409.345734,496.951782 409.015930,522.603027 
	C402.339844,518.615479 397.443329,513.055786 395.582336,504.898315 
	C395.085388,502.719940 392.227112,501.084473 390.464264,499.189178 
	C389.282959,497.919098 387.521973,496.820557 387.046417,495.320038 
	C383.291321,483.472229 374.151245,479.798187 362.572906,478.994690 
	C362.114136,447.886230 362.073212,416.780457 362.107361,385.266022 
z"/>
<path fill="#DCDEDE" opacity="1.000000" stroke="none" 
	d="
M617.975708,285.912079 
	C595.955078,285.928284 573.934509,285.944458 551.443726,285.923157 
	C550.981934,275.087646 551.046326,264.289215 550.956543,253.492020 
	C550.935913,251.023132 550.502197,248.536591 550.049011,246.097076 
	C549.268616,241.895554 546.747009,240.022354 542.354309,239.932449 
	C536.289124,239.808304 530.234436,239.168808 523.959961,238.440155 
	C553.860657,238.081955 583.976685,238.033646 614.748901,238.350815 
	C616.269531,241.493103 617.824219,244.256088 617.880188,247.049103 
	C618.139587,259.998871 617.983215,272.956970 617.975708,285.912079 
z"/>
<path fill="#FEFEFE" opacity="1.000000" stroke="none" 
	d="
M544.253418,889.281372 
	C534.192200,895.433411 523.745728,896.252563 512.914307,893.406372 
	C499.891327,889.984253 491.559601,882.331665 489.905762,868.258362 
	C489.169128,861.990112 488.708252,862.046143 495.099854,862.049500 
	C500.419220,862.052368 505.738586,862.050110 511.355255,862.050110 
	C511.891144,863.535706 512.638306,864.974121 512.921509,866.498779 
	C514.315979,874.005798 517.731689,876.632996 525.558167,876.032898 
	C531.858032,875.549744 536.065552,870.806213 536.061584,864.175415 
	C536.048218,841.868896 536.029480,819.562378 536.015991,797.255859 
	C536.011719,790.096313 536.016357,790.096008 543.426880,790.095276 
	C548.396301,790.094788 553.365723,790.095215 558.641968,790.095215 
	C558.778809,791.648926 558.987549,792.916870 558.987671,794.184875 
	C558.990662,817.490356 559.111267,840.797119 558.888367,864.100647 
	C558.784912,874.917664 554.282410,883.577332 544.253418,889.281372 
z"/>
<path fill="#F0F1F1" opacity="1.000000" stroke="none" 
	d="
M805.991455,285.985382 
	C784.304443,285.984741 762.617493,285.984131 740.559448,285.635925 
	C740.125610,277.153748 739.988098,269.018738 740.027771,260.884613 
	C740.052002,255.913620 740.232971,250.936386 740.557373,245.975937 
	C740.843994,241.594147 743.114990,239.528198 747.775574,239.879211 
	C749.465637,240.006531 751.259705,238.752365 753.006348,238.128540 
	C764.297119,238.080200 775.589294,237.929520 786.877014,238.093155 
	C788.582336,238.117889 790.604065,239.250702 791.901428,240.480728 
	C797.319519,245.617477 802.517029,250.986908 807.779785,256.911743 
	C807.341492,260.962402 806.721741,264.361847 806.539368,267.784607 
	C806.216492,273.844086 806.159668,279.917694 805.991455,285.985382 
z"/>
<path fill="#E9EAEB" opacity="1.000000" stroke="none" 
	d="
M752.562744,238.058411 
	C751.259705,238.752365 749.465637,240.006531 747.775574,239.879211 
	C743.114990,239.528198 740.843994,241.594147 740.557373,245.975937 
	C740.232971,250.936386 740.052002,255.913620 740.027771,260.884613 
	C739.988098,269.018738 740.125610,277.153748 740.090454,285.626892 
	C719.967041,285.966156 699.941711,285.966949 679.453003,285.490265 
	C678.429810,278.656372 677.520569,272.306244 677.405396,265.941772 
	C677.283447,259.204102 677.926758,252.453156 678.215637,245.707138 
	C678.344727,242.691864 678.455811,239.661255 675.024109,238.136703 
	C677.399475,238.098145 679.774780,238.059601 682.705322,238.159058 
	C683.260498,238.297073 683.640930,238.318115 683.640930,238.318115 
	C683.640930,238.318115 683.983032,238.127991 683.983032,238.127991 
	C706.695068,238.081421 729.407166,238.034851 752.562744,238.058411 
z"/>
<path fill="#E3E4E5" opacity="1.000000" stroke="none" 
	d="
M674.558350,238.066956 
	C678.455811,239.661255 678.344727,242.691864 678.215637,245.707138 
	C677.926758,252.453156 677.283447,259.204102 677.405396,265.941772 
	C677.520569,272.306244 678.429810,278.656372 678.983154,285.473328 
	C658.956726,285.945190 638.936829,285.956573 618.446289,285.940002 
	C617.983215,272.956970 618.139587,259.998871 617.880188,247.049103 
	C617.824219,244.256088 616.269531,241.493103 615.215210,238.416168 
	C634.714355,238.076431 654.403442,238.036819 674.558350,238.066956 
z"/>
<path fill="#F7F8F8" opacity="1.000000" stroke="none" 
	d="
M789.978760,412.007385 
	C791.112610,412.174561 792.247986,412.496643 793.380005,412.485229 
	C806.672180,412.351440 819.964172,412.184509 833.255310,411.970093 
	C834.550232,411.949188 835.839050,411.553619 837.476929,411.175171 
	C837.847534,430.226440 837.871948,449.434448 837.402893,468.605164 
	C835.000671,467.879883 833.082581,466.590240 831.184875,466.619568 
	C825.980164,466.700043 820.424133,468.703735 815.662781,467.452118 
	C806.971680,465.167419 799.123291,468.311310 790.893188,468.597839 
	C790.267517,463.794830 789.662903,459.407593 789.095703,454.601074 
	C789.404907,451.388031 789.887024,448.596161 789.911682,445.800262 
	C790.010864,434.536652 789.968750,423.271820 789.978760,412.007385 
z"/>
<path fill="#F0F1F1" opacity="1.000000" stroke="none" 
	d="
M409.922852,336.592651 
	C408.084717,334.935486 406.256805,332.903351 404.428864,330.871185 
	C404.719788,330.456909 405.010742,330.042633 405.301666,329.628326 
	C403.782410,329.787262 402.263153,329.946167 401.460785,330.030121 
	C399.494568,327.504547 397.914032,325.283569 396.138000,323.231842 
	C392.122894,318.593445 388.503296,313.366394 381.213226,313.630707 
	C380.168579,313.668579 379.098755,312.184845 377.991364,311.482880 
	C375.259827,309.751373 372.499756,308.064941 369.292847,306.874817 
	C367.633179,303.590637 370.750519,298.068207 364.284729,295.762573 
	C363.295715,294.957642 362.747894,294.468445 362.200073,293.979248 
	C361.013458,288.089539 363.199249,283.871704 367.567719,279.685394 
	C381.375641,266.453278 394.722351,252.739868 408.835449,239.091278 
	C409.618622,238.973465 409.813812,238.977036 410.009033,238.980606 
	C410.004211,261.290070 410.004913,283.599518 409.992096,305.908966 
	C409.986298,316.011871 409.953583,326.114777 409.922852,336.592651 
z"/>
<path fill="#DCDEDE" opacity="1.000000" stroke="none" 
	d="
M791.781494,665.852783 
	C790.878784,661.841736 789.976013,657.830688 789.268921,653.046753 
	C789.635803,638.835815 789.806885,625.397766 790.311279,611.964966 
	C791.088440,611.970398 791.532227,611.970459 792.318604,611.979858 
	C807.385071,611.995544 822.108948,612.001892 836.832886,612.008179 
	C837.203491,616.152405 837.863220,620.294678 837.891296,624.441162 
	C837.979675,637.531311 837.834900,650.623047 837.746826,663.713989 
	C837.745178,663.957397 837.328796,664.197998 836.640259,664.806030 
	C835.868774,665.299438 835.568237,665.522766 835.256470,665.539795 
	C829.245667,665.869507 823.100281,667.056152 817.268799,666.174194 
	C813.409668,665.590454 810.019592,663.817505 805.997253,665.748535 
	C804.522766,666.456360 802.413330,665.832458 800.593567,665.832275 
	C797.656250,665.832031 794.718872,665.845215 791.781494,665.852783 
z"/>
<path fill="#F0F1F1" opacity="1.000000" stroke="none" 
	d="
M790.914307,469.013611 
	C799.123291,468.311310 806.971680,465.167419 815.662781,467.452118 
	C820.424133,468.703735 825.980164,466.700043 831.184875,466.619568 
	C833.082581,466.590240 835.000671,467.879883 837.112549,469.033325 
	C837.315735,469.498810 837.076233,469.676056 836.918213,469.815613 
	C836.859619,469.920715 836.959045,469.886261 837.058472,469.851807 
	C837.380127,471.366180 837.966187,472.878174 837.979797,474.395325 
	C838.059631,483.296478 838.005798,492.198792 837.769165,501.730774 
	C837.357300,502.601654 837.188477,502.852722 837.034790,503.113953 
	C837.107971,507.172607 837.181152,511.231262 837.197998,515.619019 
	C831.760925,516.133667 826.381592,516.398010 820.999207,516.487793 
	C810.936768,516.655518 800.872559,516.721924 790.399658,516.447388 
	C789.989868,502.477112 789.950378,488.889679 790.030823,475.303009 
	C790.043213,473.204895 790.606018,471.109985 790.914307,469.013611 
M813.499817,468.526581 
	C813.499817,468.526581 813.484802,468.485687 813.499817,468.526581 
z"/>
<path fill="#E3E4E5" opacity="1.000000" stroke="none" 
	d="
M836.988892,611.699524 
	C822.108948,612.001892 807.385071,611.995544 792.289673,611.654602 
	C791.270142,610.556946 790.622131,609.793823 789.766479,608.671753 
	C789.375854,606.519348 789.102905,604.729614 789.026001,602.931580 
	C788.751160,596.508728 790.344543,589.799316 786.031311,584.017090 
	C789.460938,583.958130 790.021240,581.702454 790.000244,578.921692 
	C789.965393,574.309937 789.990723,569.697754 789.990723,565.608459 
	C796.644165,565.608459 802.617371,566.177856 808.438538,565.479797 
	C818.031067,564.329529 827.965088,567.716858 837.585632,563.120239 
	C837.947327,571.699646 837.990173,580.401978 837.792358,589.729980 
	C837.381104,590.608887 837.205688,590.858643 837.025452,591.105042 
	C837.348145,593.466431 837.963928,595.831909 837.930298,598.188232 
	C837.867432,602.591980 837.427795,606.990295 836.988892,611.699524 
z"/>
<path fill="#D5D7D8" opacity="1.000000" stroke="none" 
	d="
M791.448059,666.050903 
	C794.718872,665.845215 797.656250,665.832031 800.593567,665.832275 
	C802.413330,665.832458 804.522766,666.456360 805.997253,665.748535 
	C810.019592,663.817505 813.409668,665.590454 817.268799,666.174194 
	C823.100281,667.056152 829.245667,665.869507 835.256470,665.539795 
	C835.568237,665.522766 835.868774,665.299438 836.503235,665.081421 
	C836.045166,666.336731 835.497620,667.919434 834.435425,668.992859 
	C820.268677,683.308289 806.029846,697.552490 791.199585,711.922119 
	C790.388062,712.027466 790.186035,712.025146 789.983948,712.022766 
	C789.965210,698.303467 789.908875,684.583984 789.980164,670.865112 
	C789.988159,669.324463 790.718933,667.787598 791.448059,666.050903 
z"/>
<path fill="#F7F8F8" opacity="1.000000" stroke="none" 
	d="
M806.460938,285.990387 
	C806.159668,279.917694 806.216492,273.844086 806.539368,267.784607 
	C806.721741,264.361847 807.341492,260.962402 807.907349,257.218262 
	C817.645691,266.368774 827.240784,275.853455 836.971069,285.647278 
	C827.047546,285.969391 816.989014,285.982391 806.460938,285.990387 
z"/>
<path fill="#E3E4E5" opacity="1.000000" stroke="none" 
	d="
M362.121948,294.314270 
	C362.747894,294.468445 363.295715,294.957642 363.924805,295.723389 
	C363.601349,296.002716 363.196625,296.005432 362.488342,296.009155 
	C362.137848,295.556488 362.090851,295.102905 362.121948,294.314270 
z"/>
<path fill="#E9EAEB" opacity="1.000000" stroke="none" 
	d="
M362.779297,664.998962 
	C363.000183,665.186584 362.996582,665.367859 362.976135,665.820984 
	C362.664764,665.912903 362.370178,665.733032 362.090942,665.285400 
	C362.106323,665.017639 362.554810,664.992554 362.779297,664.998962 
z"/>
<path fill="#E9EAEB" opacity="1.000000" stroke="none" 
	d="
M789.982910,712.216919 
	C790.186035,712.025146 790.388062,712.027466 790.893188,712.042358 
	C790.969604,712.329895 790.742859,712.604980 790.247559,712.839722 
	C789.979004,712.799377 789.981812,712.411072 789.982910,712.216919 
z"/>
<path fill="#F7F8F8" opacity="1.000000" stroke="none" 
	d="
M837.036255,469.783997 
	C836.959045,469.886261 836.859619,469.920715 836.848083,469.775940 
	C836.935974,469.596741 837.014038,469.716187 837.036255,469.783997 
z"/>
<path fill="#F7F8F8" opacity="1.000000" stroke="none" 
	d="
M837.274292,591.021851 
	C837.205688,590.858643 837.381104,590.608887 837.714661,590.195129 
	C837.759399,590.335999 837.641235,590.637329 837.274292,591.021851 
z"/>
<path fill="#F7F8F8" opacity="1.000000" stroke="none" 
	d="
M837.875854,560.711304 
	C837.635437,560.769165 837.441956,560.533936 837.154968,560.079956 
	C837.312988,560.076111 837.600037,560.261780 837.875854,560.711304 
z"/>
<path fill="#F7F8F8" opacity="1.000000" stroke="none" 
	d="
M837.281555,503.025085 
	C837.188477,502.852722 837.357300,502.601654 837.696045,502.194824 
	C837.743347,502.331329 837.635864,502.633789 837.281555,503.025085 
z"/>
<path fill="#F7F8F8" opacity="1.000000" stroke="none" 
	d="
M837.897217,409.747162 
	C837.748718,409.659027 837.674072,409.323730 837.694092,408.741180 
	C837.849548,408.829285 837.910278,409.164642 837.897217,409.747162 
z"/>
<path fill="#F0F1F1" opacity="1.000000" stroke="none" 
	d="
M683.743103,238.079300 
	C683.983032,238.127991 683.640930,238.318115 683.640930,238.318115 
	C683.640930,238.318115 683.260498,238.297073 683.146240,238.230408 
	C683.031982,238.163757 683.503174,238.030609 683.743103,238.079300 
z"/>
<path fill="#DCDEDE" opacity="1.000000" stroke="none" 
	d="
M410.008423,238.755554 
	C409.813812,238.977036 409.618622,238.973465 409.131409,238.943954 
	C409.042572,238.627548 409.245697,238.337082 409.722168,238.063599 
	C409.995483,238.080597 410.007843,238.530518 410.008423,238.755554 
z"/>
<path fill="#47704C" opacity="1.000000" stroke="none" 
	d="
M742.161499,519.081787 
	C742.118408,540.081482 742.075378,561.081177 742.041016,583.008545 
	C742.028076,595.275513 742.006409,606.614807 741.518555,617.993408 
	C727.734314,618.093628 714.416260,618.154419 700.692078,618.135315 
	C674.745178,618.098450 649.204407,618.141479 623.261597,618.108765 
	C600.575745,618.074707 578.291809,618.116455 555.543579,618.086304 
	C538.721375,618.052551 522.363525,618.090820 505.541931,618.060059 
	C489.444305,617.966919 473.810394,617.942932 458.176514,617.918884 
	C458.131561,615.755493 458.047424,613.592163 458.047272,611.428772 
	C458.040375,519.308777 458.040985,427.188782 458.037262,334.609741 
	C459.194550,334.093292 460.355286,333.985687 461.515991,333.985657 
	C554.692322,333.983429 647.868591,333.989563 741.520264,334.506714 
	C742.052185,340.693542 742.108826,346.368683 742.107971,352.270996 
	C742.050415,352.498138 742.127441,352.960449 742.050354,353.426025 
	C742.015076,366.929108 742.056885,379.966553 742.041809,393.469391 
	C742.033203,414.958801 742.081543,435.982880 742.069702,457.471741 
	C742.060120,478.318268 742.110779,498.700043 742.161499,519.081787 
z"/>
<path fill="#DCDEDE" opacity="1.000000" stroke="none" 
	d="
M457.898560,617.934387 
	C473.810394,617.942932 489.444305,617.966919 505.348633,618.389160 
	C504.075684,619.190918 502.546265,619.862061 500.986115,619.943420 
	C497.500977,620.125183 493.994415,619.884277 490.507721,620.050171 
	C485.237762,620.300964 483.903961,622.645813 485.648956,627.477356 
	C486.473297,629.759766 486.504059,632.318542 487.029968,634.722473 
	C487.408234,636.451294 487.644836,638.375000 488.584869,639.784973 
	C491.019196,643.436157 493.807678,646.851135 496.601166,650.554626 
	C495.651672,651.432129 494.909912,652.331421 493.978271,652.939880 
	C490.774078,655.032593 489.506256,656.798828 493.685883,659.517639 
	C495.079956,660.424438 495.266388,663.187683 496.004883,665.102295 
	C471.319244,665.088684 446.633636,665.075012 421.481018,665.050049 
	C420.894897,663.554871 420.595215,662.057312 420.706543,660.591003 
	C420.821625,659.075195 421.335815,657.589600 421.675354,656.090820 
	C422.962128,656.407471 424.248932,656.724121 426.656891,657.316650 
	C426.115723,655.542664 426.026581,653.871033 425.194244,652.752502 
	C420.771851,646.808899 417.125366,640.677124 417.877716,632.819397 
	C417.972290,631.831726 417.166382,630.708130 416.640564,629.720459 
	C415.242523,627.094666 413.769592,624.508728 412.326416,621.906982 
	C414.658905,621.082275 416.991394,620.257568 420.125305,619.219177 
	C430.717041,619.002869 440.508087,619.061707 450.297180,618.951294 
	C452.556427,618.925842 454.809113,618.320496 457.064819,617.981995 
	C457.250122,617.971313 457.435394,617.960571 457.898560,617.934387 
z"/>
<path fill="#E9EAEB" opacity="1.000000" stroke="none" 
	d="
M456.589233,617.988159 
	C454.809113,618.320496 452.556427,618.925842 450.297180,618.951294 
	C440.508087,619.061707 430.717041,619.002869 420.456665,619.015076 
	C417.355652,619.024658 414.724701,619.024658 412.093781,619.024658 
	C412.090912,618.681213 412.088043,618.337830 412.085175,617.994385 
	C426.761322,617.994385 441.437500,617.994385 456.589233,617.988159 
z"/>
<path fill="#E9EAEB" opacity="1.000000" stroke="none" 
	d="
M374.635559,665.104736 
	C373.458466,665.336731 371.855408,665.529602 370.096130,665.432861 
	C371.363159,665.117432 372.786377,665.091553 374.635559,665.104736 
z"/>
<path fill="#DCDEDE" opacity="1.000000" stroke="none" 
	d="
M742.129944,457.006927 
	C742.081543,435.982880 742.033203,414.958801 742.359131,393.293640 
	C743.448059,390.385712 744.162659,388.118958 744.921692,385.711243 
	C748.409546,385.711243 751.815735,385.711243 755.177368,385.711243 
	C757.725281,397.310486 765.614746,391.548157 772.009521,390.861877 
	C772.009521,389.376831 772.009521,387.571289 772.009521,385.972748 
	C773.779053,385.972748 775.345398,385.972748 777.106812,385.972748 
	C777.106812,387.911041 777.106812,389.714905 777.106812,391.730469 
	C778.649353,391.952545 780.027649,392.151001 781.500854,392.363068 
	C781.624451,389.700867 781.728577,387.458832 781.832703,385.216766 
	C782.549744,384.864502 783.266846,384.512207 783.983948,384.159912 
	C783.676758,389.199341 783.009644,394.531708 789.660156,393.908844 
	C789.757812,399.629150 789.855408,405.349487 789.965881,411.538605 
	C789.968750,423.271820 790.010864,434.536652 789.911682,445.800262 
	C789.887024,448.596161 789.404907,451.388031 788.731750,454.559998 
	C786.627930,454.513092 784.912109,453.687958 783.225708,453.744171 
	C779.485596,453.868774 775.764893,454.489899 772.027893,454.811707 
	C762.071472,455.669128 751.818237,452.474091 742.129944,457.006927 
M775.465271,391.612793 
	C775.529175,391.223785 775.593018,390.834808 775.656860,390.445801 
	C775.511902,390.769287 775.366943,391.092743 775.465271,391.612793 
M773.137512,391.179871 
	C773.346985,391.272034 773.556458,391.364197 773.765991,391.456329 
	C773.762512,391.152069 773.759094,390.847839 773.755615,390.543579 
	C773.548645,390.647278 773.341614,390.750977 773.137512,391.179871 
z"/>
<path fill="#D5D7D8" opacity="1.000000" stroke="none" 
	d="
M789.724365,393.452454 
	C783.009644,394.531708 783.676758,389.199341 783.983948,384.159912 
	C783.266846,384.512207 782.549744,384.864502 781.832703,385.216766 
	C781.728577,387.458832 781.624451,389.700867 781.500854,392.363068 
	C780.027649,392.151001 778.649353,391.952545 777.106812,391.730469 
	C777.106812,389.714905 777.106812,387.911041 777.106812,385.972748 
	C775.345398,385.972748 773.779053,385.972748 772.009521,385.972748 
	C772.009521,387.571289 772.009521,389.376831 772.009521,390.861877 
	C765.614746,391.548157 757.725281,397.310486 755.177368,385.711243 
	C751.815735,385.711243 748.409546,385.711243 744.921692,385.711243 
	C744.162659,388.118958 743.448059,390.385712 742.416138,392.828247 
	C742.056885,379.966553 742.015076,366.929108 742.117065,353.317993 
	C742.364807,352.504425 742.333069,352.270935 742.165527,352.043854 
	C742.108826,346.368683 742.052185,340.693542 741.984985,334.556427 
	C743.563538,333.749817 745.150879,333.116516 746.742249,333.106232 
	C759.402649,333.024261 772.065063,333.156219 784.724121,333.002075 
	C788.505859,332.956024 790.106995,334.089569 790.060059,338.112000 
	C789.846375,356.405273 789.857971,374.701141 789.724365,393.452454 
M770.795654,385.659027 
	C770.476074,385.948914 770.133484,386.220001 769.862915,386.550079 
	C769.824890,386.596436 770.139160,386.931610 770.290405,387.133118 
	C770.483276,386.765656 770.676208,386.398224 770.795654,385.659027 
M761.501099,389.524384 
	C761.501099,389.524384 761.487488,389.487122 761.501099,389.524384 
M778.499878,384.528015 
	C778.499878,384.528015 778.485046,384.487274 778.499878,384.528015 
z"/>
<path fill="#F0F1F1" opacity="1.000000" stroke="none" 
	d="
M623.663574,618.184509 
	C649.204407,618.141479 674.745178,618.098450 700.755859,618.519348 
	C702.642456,619.988098 703.924622,621.441711 705.500977,621.914307 
	C710.369324,623.373962 712.700378,626.170715 712.058044,631.432312 
	C711.717529,634.222290 711.721619,637.122070 712.056274,639.914001 
	C713.083557,648.484680 712.404602,657.492493 717.542542,664.985840 
	C703.470581,664.992859 689.867676,664.954041 676.265747,665.044556 
	C674.174316,665.058472 672.086853,665.667664 669.997559,666.001465 
	C669.248779,666.002869 668.500000,666.004272 667.197937,665.857666 
	C666.095642,665.807068 665.546570,665.904480 664.997559,666.001892 
	C660.234436,665.423462 655.471252,664.845032 650.182373,663.854736 
	C645.795227,659.093628 645.795227,659.093628 638.867371,664.552734 
	C637.781006,662.118835 636.771729,659.857544 635.709412,657.477356 
	C642.174011,655.815613 642.510620,654.984863 639.366638,649.865601 
	C638.598450,648.614685 637.459839,647.542114 636.912598,646.214050 
	C635.343811,642.406677 633.744873,638.580566 632.618164,634.630493 
	C631.334045,630.128357 630.546753,625.484436 629.361450,620.070312 
	C625.658569,622.704224 624.034790,621.561951 623.663574,618.184509 
z"/>
<path fill="#E3E4E5" opacity="1.000000" stroke="none" 
	d="
M496.268372,665.245850 
	C495.266388,663.187683 495.079956,660.424438 493.685883,659.517639 
	C489.506256,656.798828 490.774078,655.032593 493.978271,652.939880 
	C494.909912,652.331421 495.651672,651.432129 496.601166,650.554626 
	C493.807678,646.851135 491.019196,643.436157 488.584869,639.784973 
	C487.644836,638.375000 487.408234,636.451294 487.029968,634.722473 
	C486.504059,632.318542 486.473297,629.759766 485.648956,627.477356 
	C483.903961,622.645813 485.237762,620.300964 490.507721,620.050171 
	C493.994415,619.884277 497.500977,620.125183 500.986115,619.943420 
	C502.546265,619.862061 504.075684,619.190918 505.812378,618.458252 
	C522.363525,618.090820 538.721375,618.052551 555.574829,618.470764 
	C557.146606,622.378784 557.196106,627.081848 559.531860,628.997864 
	C563.339844,632.121460 564.697510,635.452637 565.190186,639.950745 
	C565.601624,643.706848 566.538757,647.445740 567.646240,651.069031 
	C568.243896,653.024414 569.400024,655.997375 570.799255,656.312378 
	C576.655334,657.630798 576.154236,661.749634 575.977783,665.954956 
	C549.495789,665.766479 523.013794,665.578003 496.268372,665.245850 
z"/>
<path fill="#E9EAEB" opacity="1.000000" stroke="none" 
	d="
M576.448486,665.968750 
	C576.154236,661.749634 576.655334,657.630798 570.799255,656.312378 
	C569.400024,655.997375 568.243896,653.024414 567.646240,651.069031 
	C566.538757,647.445740 565.601624,643.706848 565.190186,639.950745 
	C564.697510,635.452637 563.339844,632.121460 559.531860,628.997864 
	C557.196106,627.081848 557.146606,622.378784 556.039185,618.542725 
	C578.291809,618.116455 600.575745,618.074707 623.261597,618.108765 
	C624.034790,621.561951 625.658569,622.704224 629.361450,620.070312 
	C630.546753,625.484436 631.334045,630.128357 632.618164,634.630493 
	C633.744873,638.580566 635.343811,642.406677 636.912598,646.214050 
	C637.459839,647.542114 638.598450,648.614685 639.366638,649.865601 
	C642.510620,654.984863 642.174011,655.815613 635.709412,657.477356 
	C636.771729,659.857544 637.781006,662.118835 638.867371,664.552734 
	C645.795227,659.093628 645.795227,659.093628 649.838745,663.727783 
	C647.724548,664.675354 645.431763,665.899231 643.131287,665.913696 
	C621.061340,666.053162 598.990112,665.988586 576.448486,665.968750 
z"/>
<path fill="#F0F1F1" opacity="1.000000" stroke="none" 
	d="
M741.984741,617.954041 
	C742.006409,606.614807 742.028076,595.275513 742.116638,583.472351 
	C747.435120,583.045105 752.686646,583.092957 757.938293,583.111938 
	C759.601624,583.117981 761.265198,583.019287 762.928711,583.015869 
	C769.679993,583.001892 776.431274,583.006409 783.715210,583.088379 
	C784.247925,583.172729 784.626587,583.211548 784.626587,583.211548 
	C784.626587,583.211548 784.957153,583.004395 784.957153,583.004395 
	C785.230774,583.189514 785.481323,583.401917 785.869995,583.829346 
	C790.344543,589.799316 788.751160,596.508728 789.026001,602.931580 
	C789.102905,604.729614 789.375854,606.519348 789.769104,609.037781 
	C789.978943,610.494995 789.978455,611.227356 789.978027,611.959656 
	C789.806885,625.397766 789.635803,638.835815 789.269653,652.633057 
	C774.033203,652.997314 758.991638,653.002380 743.478271,652.540039 
	C743.004272,644.956360 743.108337,637.837830 742.955383,630.724792 
	C742.878418,627.145508 742.334961,623.576233 741.997559,619.661011 
	C741.990051,618.864380 741.987427,618.409241 741.984741,617.954041 
z"/>
<path fill="#E9EAEB" opacity="1.000000" stroke="none" 
	d="
M670.466492,666.001709 
	C672.086853,665.667664 674.174316,665.058472 676.265747,665.044556 
	C689.867676,664.954041 703.470581,664.992859 717.871399,664.863037 
	C726.447266,664.825256 734.224854,664.913879 742.001221,665.001221 
	C742.000000,665.000000 741.998596,664.999695 741.998596,664.999695 
	C739.907227,665.333862 737.816711,665.951599 735.724304,665.958496 
	C714.128174,666.029602 692.531738,666.002075 670.466492,666.001709 
z"/>
<path fill="#E9EAEB" opacity="1.000000" stroke="none" 
	d="
M742.002441,620.002441 
	C742.334961,623.576233 742.878418,627.145508 742.955383,630.724792 
	C743.108337,637.837830 743.004272,644.956360 743.010498,652.542725 
	C742.820740,656.778198 742.626831,660.543457 742.215820,664.654236 
	C741.998596,664.999695 742.000000,665.000000 741.998169,664.532288 
	C741.998291,649.377197 742.000366,634.689819 742.002441,620.002441 
z"/>
<path fill="#E9EAEB" opacity="1.000000" stroke="none" 
	d="
M665.331665,666.002075 
	C665.546570,665.904480 666.095642,665.807068 666.823547,665.855835 
	C666.556885,666.002136 666.111389,666.002136 665.331665,666.002075 
z"/>
<path fill="#E3E4E5" opacity="1.000000" stroke="none" 
	d="
M742.069702,457.471741 
	C751.818237,452.474091 762.071472,455.669128 772.027893,454.811707 
	C775.764893,454.489899 779.485596,453.868774 783.225708,453.744171 
	C784.912109,453.687958 786.627930,454.513092 788.694336,454.979340 
	C789.662903,459.407593 790.267517,463.794830 790.893250,468.597839 
	C790.606018,471.109985 790.043213,473.204895 790.030823,475.303009 
	C789.950378,488.889679 789.989868,502.477112 789.990234,516.533203 
	C788.546509,517.321716 787.104736,517.908081 785.658691,517.919006 
	C773.932312,518.007568 762.204590,517.935974 750.478516,518.044067 
	C748.015381,518.066772 745.557312,518.628540 742.629150,519.011841 
	C742.110779,498.700043 742.060120,478.318268 742.069702,457.471741 
z"/>
<path fill="#E3E4E5" opacity="1.000000" stroke="none" 
	d="
M784.728638,583.005737 
	C784.957153,583.004395 784.626587,583.211548 784.626587,583.211548 
	C784.626587,583.211548 784.247925,583.172729 784.145508,583.088562 
	C784.043091,583.004395 784.500122,583.007141 784.728638,583.005737 
z"/>
<path fill="#E9EAEB" opacity="1.000000" stroke="none" 
	d="
M790.311279,611.964966 
	C789.978455,611.227356 789.978943,610.494995 789.976746,609.396729 
	C790.622131,609.793823 791.270142,610.556946 791.947144,611.645264 
	C791.532227,611.970459 791.088440,611.970398 790.311279,611.964966 
z"/>
<path fill="#F7F8F8" opacity="1.000000" stroke="none" 
	d="
M813.492310,468.506134 
	C813.484802,468.485687 813.499817,468.526581 813.492310,468.506134 
z"/>
<path fill="#F7F8F8" opacity="1.000000" stroke="none" 
	d="
M741.997559,619.661011 
	C742.000366,634.689819 741.998291,649.377197 741.999390,664.533508 
	C734.224854,664.913879 726.447266,664.825256 718.340820,664.859558 
	C712.404602,657.492493 713.083557,648.484680 712.056274,639.914001 
	C711.721619,637.122070 711.717529,634.222290 712.058044,631.432312 
	C712.700378,626.170715 710.369324,623.373962 705.500977,621.914307 
	C703.924622,621.441711 702.642456,619.988098 701.161926,618.599243 
	C714.416260,618.154419 727.734314,618.093628 741.518616,617.993408 
	C741.987427,618.409241 741.990051,618.864380 741.997559,619.661011 
z"/>
<path fill="#E9EAEB" opacity="1.000000" stroke="none" 
	d="
M742.107971,352.270996 
	C742.333069,352.270935 742.364807,352.504425 742.194092,352.852386 
	C742.127441,352.960449 742.050415,352.498138 742.107971,352.270996 
z"/>
<path fill="#D5D7D8" opacity="1.000000" stroke="none" 
	d="
M775.343628,391.514496 
	C775.366943,391.092743 775.511902,390.769287 775.656860,390.445801 
	C775.593018,390.834808 775.529175,391.223785 775.343628,391.514496 
z"/>
<path fill="#D5D7D8" opacity="1.000000" stroke="none" 
	d="
M773.136108,391.017273 
	C773.341614,390.750977 773.548645,390.647278 773.755615,390.543579 
	C773.759094,390.847839 773.762512,391.152069 773.765991,391.456329 
	C773.556458,391.364197 773.346985,391.272034 773.136108,391.017273 
z"/>
<path fill="#DCDEDE" opacity="1.000000" stroke="none" 
	d="
M770.832397,385.844910 
	C770.676208,386.398224 770.483276,386.765656 770.290405,387.133118 
	C770.139160,386.931610 769.824890,386.596436 769.862915,386.550079 
	C770.133484,386.220001 770.476074,385.948914 770.832397,385.844910 
z"/>
<path fill="#DCDEDE" opacity="1.000000" stroke="none" 
	d="
M761.494263,389.505737 
	C761.487488,389.487122 761.501099,389.524384 761.494263,389.505737 
z"/>
<path fill="#DCDEDE" opacity="1.000000" stroke="none" 
	d="
M778.492432,384.507629 
	C778.485046,384.487274 778.499878,384.528015 778.492432,384.507629 
z"/>
</svg>